<svg width="300" height="48" viewBox="0 0 300 48" fill="none" xmlns="http://www.w3.org/2000/svg">
  <rect x="0.5" y="0.5" width="299" height="47" rx="23.5" fill="#1F1F1F"/>
  <path d="M85.296 29V17.544H89.584C90.2133 17.544 90.784 17.6773 91.296 17.944C91.808 18.2107 92.2133 18.5733 92.512 19.032C92.8213 19.4907 92.976 20.008 92.976 20.584C92.976 21.1707 92.832 21.672 92.544 22.088C92.256 22.504 91.8827 22.8187 91.424 23.032V23.112C92 23.304 92.4693 23.6347 92.832 24.104C93.1947 24.5733 93.376 25.1333 93.376 25.784C93.376 26.424 93.2107 26.984 92.88 27.464C92.56 27.944 92.1227 28.3227 91.568 28.6C91.024 28.8667 90.4267 29 89.776 29H85.296ZM87.056 23.928V27.368H89.776C90.16 27.368 90.4907 27.288 90.768 27.128C91.0453 26.968 91.2533 26.7547 91.392 26.488C91.5413 26.2213 91.616 25.944 91.616 25.656C91.616 25.3467 91.5413 25.064 91.392 24.808C91.2427 24.5413 91.024 24.328 90.736 24.168C90.4587 24.008 90.1173 23.928 89.712 23.928H87.056ZM87.056 22.36H89.504C89.8773 22.36 90.192 22.2853 90.448 22.136C90.7147 21.976 90.9173 21.7733 91.056 21.528C91.1947 21.272 91.264 21.0107 91.264 20.744C91.264 20.4773 91.1947 20.2267 91.056 19.992C90.928 19.7467 90.736 19.5493 90.48 19.4C90.224 19.24 89.92 19.16 89.568 19.16H87.056V22.36ZM97.9836 29.256C96.981 29.256 96.2236 28.9573 95.7116 28.36C95.2103 27.752 94.9596 26.9307 94.9596 25.896V20.84H96.6876V25.656C96.6876 26.3387 96.8476 26.8453 97.1676 27.176C97.4983 27.5067 97.909 27.672 98.3996 27.672C98.8476 27.672 99.2316 27.56 99.5516 27.336C99.8716 27.1013 100.117 26.7973 100.288 26.424C100.469 26.0507 100.56 25.6507 100.56 25.224V20.84H102.272V29H100.656V27.896H100.56C100.41 28.152 100.202 28.3813 99.9356 28.584C99.669 28.7867 99.3703 28.9467 99.0396 29.064C98.709 29.192 98.357 29.256 97.9836 29.256ZM107.089 32.056C107.057 32.1307 107.02 32.2053 106.977 32.28C106.945 32.3653 106.924 32.424 106.913 32.456H105.073C105.126 32.3387 105.201 32.1733 105.297 31.96C105.404 31.7467 105.505 31.5333 105.601 31.32C105.665 31.1813 105.729 31.032 105.793 30.872C105.868 30.712 105.942 30.5467 106.017 30.376C106.102 30.2053 106.182 30.04 106.257 29.88L106.865 28.552L103.457 20.84H105.377L107.713 26.408H107.793L110.049 20.84H111.953L107.729 30.568C107.654 30.7493 107.569 30.9413 107.473 31.144C107.388 31.3467 107.308 31.528 107.233 31.688C107.169 31.8587 107.121 31.9813 107.089 32.056ZM118.548 29L115.94 20.84H117.812L119.492 26.712H119.556L121.396 20.84H123.172L125.012 26.712H125.076L126.756 20.84H128.596L125.972 29H124.164L122.276 23.096H122.212L120.34 29H118.548ZM129.839 29V20.84H131.567V29H129.839ZM130.703 19.64C130.383 19.64 130.106 19.528 129.871 19.304C129.647 19.0693 129.535 18.792 129.535 18.472C129.535 18.1413 129.647 17.8693 129.871 17.656C130.106 17.432 130.383 17.32 130.703 17.32C131.034 17.32 131.311 17.432 131.535 17.656C131.759 17.8693 131.871 18.1413 131.871 18.472C131.871 18.792 131.759 19.0693 131.535 19.304C131.311 19.528 131.034 19.64 130.703 19.64ZM133.073 20.84H134.497V18.536H136.225V20.84H138.225V22.344H136.225V26.264C136.225 26.6693 136.305 26.9787 136.465 27.192C136.636 27.4053 136.918 27.512 137.313 27.512C137.505 27.512 137.676 27.4853 137.825 27.432C137.974 27.368 138.124 27.2933 138.273 27.208V28.888C138.092 28.9627 137.9 29.0213 137.697 29.064C137.494 29.1067 137.254 29.128 136.977 29.128C136.22 29.128 135.617 28.9093 135.169 28.472C134.721 28.024 134.497 27.4107 134.497 26.632V22.344H133.073V20.84ZM139.961 29V17.544H141.689V20.68L141.593 21.96H141.689C141.913 21.5653 142.254 21.24 142.713 20.984C143.182 20.7173 143.7 20.584 144.265 20.584C144.948 20.584 145.513 20.7227 145.961 21C146.42 21.2773 146.761 21.6613 146.985 22.152C147.209 22.632 147.321 23.1973 147.321 23.848V29H145.609V24.072C145.609 23.6347 145.524 23.2773 145.353 23C145.193 22.7227 144.98 22.5147 144.713 22.376C144.446 22.2373 144.148 22.168 143.817 22.168C143.401 22.168 143.033 22.2853 142.713 22.52C142.393 22.7547 142.142 23.064 141.961 23.448C141.78 23.8213 141.689 24.2213 141.689 24.648V29H139.961Z" fill="white"/>
  <g clip-path="url(#clip0_154_1144)">
    <path d="M184.866 23.7267V30.7596H182.633V13.3874H188.552C189.98 13.3571 191.36 13.8988 192.385 14.8912C193.423 15.8254 194.008 17.1621 193.985 18.5571C194.016 19.9621 193.431 21.309 192.385 22.2457C191.35 23.233 190.071 23.7267 188.552 23.7242L184.866 23.7267ZM184.866 15.5267V21.5925H188.608C189.438 21.6178 190.238 21.2912 190.816 20.6938C191.988 19.5545 192.016 17.6786 190.874 16.5064C190.854 16.4862 190.836 16.4659 190.816 16.4482C190.246 15.8381 189.441 15.5039 188.608 15.5267H184.866ZM199.13 18.4862C200.78 18.4862 202.081 18.9267 203.036 19.8077C203.99 20.6887 204.466 21.8988 204.466 23.433V30.7596H202.332V29.109H202.236C201.312 30.4685 200.081 31.1469 198.547 31.1469C197.238 31.1469 196.142 30.7596 195.261 29.9824C194.405 29.2609 193.919 28.1925 193.94 27.071C193.94 25.8406 194.405 24.8634 195.335 24.1368C196.264 23.4102 197.504 23.0457 199.059 23.0457C200.383 23.0457 201.476 23.2887 202.332 23.7723V23.2609C202.337 22.4963 201.998 21.7723 201.411 21.2862C200.821 20.7545 200.051 20.4634 199.256 20.4735C198.011 20.4735 197.023 21.0001 196.297 22.0507L194.332 20.8128C195.411 19.2609 197.011 18.4862 199.13 18.4862ZM196.241 27.1216C196.238 27.6988 196.514 28.2406 196.98 28.5773C197.474 28.9647 198.087 29.1723 198.714 29.1596C199.656 29.1571 200.56 28.7824 201.226 28.1166C201.965 27.4204 202.335 26.6052 202.335 25.6659C201.638 25.1115 200.669 24.833 199.423 24.833C198.517 24.833 197.76 25.0507 197.155 25.4887C196.545 25.9343 196.241 26.4735 196.241 27.1216ZM216.719 18.8735L209.269 36.0001H206.965L209.73 30.0077L204.828 18.8735H207.254L210.795 27.4128H210.844L214.289 18.8735H216.719Z" fill="white"/>
    <path d="M175.846 22.2076C175.846 21.5266 175.79 20.8481 175.673 20.1772H166.261V24.0203H171.651C171.428 25.2608 170.709 26.357 169.658 27.0532V29.5494H172.876C174.759 27.8152 175.846 25.2456 175.846 22.2076Z" fill="#4285F4"/>
    <path d="M166.261 31.9618C168.955 31.9618 171.223 31.0782 172.876 29.5516L169.659 27.0554C168.762 27.663 167.611 28.0099 166.261 28.0099C163.659 28.0099 161.449 26.2554 160.659 23.8909H157.345V26.463C159.038 29.8352 162.489 31.9618 166.261 31.9618Z" fill="#34A853"/>
    <path d="M160.658 23.8909C160.241 22.653 160.241 21.3087 160.658 20.0707V17.4985H157.345C155.927 20.3188 155.927 23.6428 157.345 26.4631L160.658 23.8909Z" fill="#FBBC04"/>
    <path d="M166.261 15.9518C167.684 15.929 169.059 16.4657 170.089 17.448L172.94 14.5999C171.132 12.9037 168.74 11.972 166.261 11.9999C162.489 11.9999 159.038 14.129 157.345 17.4986L160.659 20.0708C161.449 17.7062 163.659 15.9518 166.261 15.9518Z" fill="#EA4335"/>
  </g>
  <rect x="0.5" y="0.5" width="299" height="47" rx="23.5" stroke="#5E5E5E"/>
  <defs>
    <clipPath id="clip0_154_1144">
      <rect width="60.438" height="24" fill="white" transform="translate(156.281 12)"/>
    </clipPath>
  </defs>
</svg>
