<svg xmlns="http://www.w3.org/2000/svg" viewBox="-68 -12 240 40" width="240" height="40">
  <g fill="none" fill-rule="evenodd">
    <rect x="-68" y="-12" width="240" height="40" rx="5" fill="#000" />
    <path d="M.148 2.976h3.766c.532 0 1.024.117 1.477.35.453.233.814.555 1.085.966.27.41.406.863.406 1.358 0 .495-.124.924-.371 1.288s-.572.64-.973.826v.084c.504.177.912.471 1.225.882.313.41.469.891.469 1.442a2.6 2.6 0 0 1-.427 1.47c-.285.43-.667.763-1.148 1.001A3.5 3.5 0 0 1 4.082 13H.148V2.976zm3.696 4.2c.448 0 .81-.14 1.085-.42.275-.28.413-.602.413-.966s-.133-.684-.399-.959c-.266-.275-.614-.413-1.043-.413H1.716v2.758h2.128zm.238 4.368c.476 0 .856-.15 1.141-.448.285-.299.427-.644.427-1.036 0-.401-.147-.749-.441-1.043-.294-.294-.688-.441-1.183-.441h-2.31v2.968h2.366zm7.36 1.68c-.868 0-1.528-.259-1.981-.777-.453-.518-.679-1.239-.679-2.163V5.86h1.54v4.214c0 .579.138 1.013.413 1.302.275.29.637.434 1.085.434.364 0 .686-.096.966-.287.28-.191.495-.446.644-.763a2.37 2.37 0 0 0 .224-1.022V5.86h1.54V13h-1.456v-.924h-.084c-.196.336-.5.611-.91.826-.41.215-.845.322-1.302.322zm7.878-.616L16.352 5.86h1.722l2.016 4.858h.056l1.96-4.858H23.8l-4.41 10.164h-1.624l1.554-3.416zm8.266-6.748h1.666l1.442 5.11h.056l1.61-5.11h1.582l1.596 5.11h.056l1.442-5.11h1.638L36.392 13h-1.624L33.13 7.876h-.042L31.464 13h-1.596l-2.282-7.14zM40.7 4.824a1 1 0 0 1-.735-.301 1 1 0 0 1-.301-.735 1 1 0 0 1 .301-.735 1 1 0 0 1 .735-.301 1 1 0 0 1 .735.301 1 1 0 0 1 .301.735 1 1 0 0 1-.301.735 1 1 0 0 1-.735.301zm-.77 1.036h1.54V13h-1.54V5.86zm6.464 7.252c-.317 0-.616-.051-.896-.154a1.967 1.967 0 0 1-.686-.406c-.401-.401-.602-.947-.602-1.638V7.218h-1.246V5.86h1.246V3.844h1.54V5.86h1.736v1.358H45.75v3.36c0 .383.075.653.224.812.14.187.383.28.728.28.159 0 .299-.021.42-.063.121-.042.252-.11.392-.203v1.498c-.308.14-.681.21-1.12.21zm2.782-10.136h1.54v2.73l-.07 1.092h.07c.205-.336.511-.614.917-.833.406-.22.842-.329 1.309-.329.868 0 1.53.254 1.988.763.457.509.686 1.202.686 2.079V13h-1.54V8.688c0-.541-.142-.947-.427-1.218-.285-.27-.656-.406-1.113-.406-.345 0-.656.098-.931.294a2.042 2.042 0 0 0-.651.777 2.297 2.297 0 0 0-.238 1.029V13h-1.54V2.976zm32.619-.347v4.097h2.554c.608 0 1.11-.203 1.509-.607a1.96 1.96 0 0 0 .613-1.442c0-.546-.205-1.022-.613-1.427-.398-.415-.901-.622-1.51-.622h-2.553zm0 5.539v4.753H80.27V1.186h4.045c1.028 0 1.901.34 2.62 1.016.73.677 1.094 1.503 1.094 2.475 0 .994-.364 1.825-1.094 2.49-.708.668-1.581 1-2.62 1h-2.52v.001zm7.775 2.294c0 .394.17.722.507.984.337.262.732.393 1.185.393.641 0 1.213-.235 1.716-.704.503-.47.754-1.022.754-1.655-.476-.372-1.139-.557-1.99-.557-.62 0-1.135.148-1.55.443-.414.295-.621.66-.621 1.096m1.973-5.834c1.128 0 2.018.298 2.67.893.652.596.978 1.413.978 2.45v4.95h-1.459v-1.115h-.066c-.63.918-1.47 1.377-2.52 1.377-.896 0-1.645-.262-2.247-.787-.602-.524-.904-1.18-.904-1.966 0-.831.318-1.491.953-1.983.636-.492 1.484-.738 2.545-.738.906 0 1.653.164 2.238.492v-.345c0-.524-.21-.97-.63-1.335a2.175 2.175 0 0 0-1.475-.55c-.852 0-1.525.356-2.023 1.067L88.261 6.2c.74-1.049 1.835-1.573 3.283-1.573m12.021.263l-5.09 11.57h-1.576l1.89-4.048L95.44 4.89h1.658l2.421 5.77h.033l2.355-5.77z" fill="#FFF"/><path d="M75.631 7.143c0-.474-.04-.932-.117-1.37H69.08v2.596h3.684a3.12 3.12 0 0 1-1.362 2.05v1.686h2.199c1.288-1.174 2.03-2.91 2.03-4.962" fill="#4285F4"/><path d="M69.08 13.733c1.842 0 3.392-.598 4.522-1.628l-2.2-1.687c-.611.408-1.4.646-2.321.646-1.78 0-3.29-1.186-3.83-2.784h-2.265v1.738a6.83 6.83 0 0 0 6.095 3.715" fill="#34A853"/><path d="M65.251 8.28a4.01 4.01 0 0 1 0-2.58V3.961h-2.265a6.644 6.644 0 0 0-.727 3.028c0 1.089.262 2.117.727 3.028L65.25 8.28z" fill="#FABB05"/><path d="M69.08 2.916c1.006 0 1.907.342 2.618 1.011v.001l1.947-1.924C72.462.916 70.92.247 69.08.247a6.83 6.83 0 0 0-6.095 3.715L65.25 5.7c.54-1.597 2.05-2.783 3.83-2.783" fill="#E94235"/>
  </g>
</svg>
